<svg xmlns="http://www.w3.org/2000/svg" viewBox="0 0 784 784"><title>d6</title><rect x="0.5" y="0.5" width="783" height="783" rx="116.63"/><path d="M714.87,49A116.12,116.12,0,0,1,831,165.13V714.87A116.12,116.12,0,0,1,714.87,831H165.13A116.12,116.12,0,0,1,49,714.87V165.13A116.12,116.12,0,0,1,165.13,49H714.87m0-1H165.13A117.13,117.13,0,0,0,48,165.13V714.87A117.13,117.13,0,0,0,165.13,832H714.87A117.13,117.13,0,0,0,832,714.87V165.13A117.13,117.13,0,0,0,714.87,48Z" transform="translate(-48 -48)"/></svg>